# xmcd CD database file
#
# Track frame offsets:
#	150
#	45234
#	77823
#	113458
#	134604
#
# Disc length: 2037 seconds
#
# Revision: 0
# Processed by: cddbd v1.5.1PL0 Copyright (c) Steve Scherf et al.
# Submitted via: CDex 1.51
#
DISCID=3407f305
DTITLE=Slide Hampton - American Swinging In Paris
DYEAR=1969
DGENRE=Jazz
TTITLE0=In Case Of Emergency
TTITLE1=Last Minute Blues
TTITLE2=Chop Suey
TTITLE3=Lament
TTITLE4=Impossible Waltz
EXTD=YEAR: 1969
EXTT0=
EXTT1=
EXTT2=
EXTT3=
EXTT4=
PLAYORDER=
